HIERARCHY
ROOT root
{
	OFFSET 0.000000 0.000000 0.000000
	CHANNELS 6 Xposition Yposition Zposition Zrotation Yrotation Xrotation
	JOINT lhip
	{
		OFFSET 0.058581 -0.082280 -0.017664
		CHANNELS 3 Zrotation Yrotation Xrotation
		JOINT lknee
		{
			OFFSET 0.043451 -0.386469 0.008037
			CHANNELS 3 Zrotation Yrotation Xrotation
			JOINT lankle
			{
				OFFSET -0.014790 -0.426874 -0.037428
				CHANNELS 3 Zrotation Yrotation Xrotation
				JOINT ltoe
				{
					OFFSET 0.041054 -0.060286 0.122042
					CHANNELS 3 Zrotation Yrotation Xrotation
					End Site
					{
						OFFSET 0.000000 0.000000 0.000000
					}
				}
			}
		}
	}
	JOINT rhip
	{
		OFFSET -0.060310 -0.090513 -0.013543
		CHANNELS 3 Zrotation Yrotation Xrotation
		JOINT rknee
		{
			OFFSET -0.043257 -0.383688 -0.004843
			CHANNELS 3 Zrotation Yrotation Xrotation
			JOINT rankle
			{
				OFFSET 0.019056 -0.420046 -0.034562
				CHANNELS 3 Zrotation Yrotation Xrotation
				JOINT rtoe
				{
					OFFSET -0.034840 -0.062106 0.130323
					CHANNELS 3 Zrotation Yrotation Xrotation
					End Site
					{
						OFFSET 0.000000 0.000000 0.000000
					}
				}
			}
		}
	}
	JOINT lowerback
	{
		OFFSET 0.004439 0.124404 -0.038385
		CHANNELS 3 Zrotation Yrotation Xrotation
		JOINT upperback
		{
			OFFSET 0.004488 0.137956 0.026820
			CHANNELS 3 Zrotation Yrotation Xrotation
			JOINT chest
			{
				OFFSET -0.002265 0.056032 0.002855
				CHANNELS 3 Zrotation Yrotation Xrotation
				JOINT lowerneck
				{
					OFFSET -0.013390 0.211636 -0.033468
					CHANNELS 3 Zrotation Yrotation Xrotation
					JOINT upperneck
					{
						OFFSET 0.010113 0.088937 0.050410
						CHANNELS 3 Zrotation Yrotation Xrotation
						End Site
						{
							OFFSET 0.000000 0.000000 0.000000
						}
					}
				}
				JOINT lclavicle
				{
					OFFSET 0.071702 0.114000 -0.018898
					CHANNELS 3 Zrotation Yrotation Xrotation
					JOINT lshoulder
					{
						OFFSET 0.122921 0.045205 -0.019046
						CHANNELS 3 Zrotation Yrotation Xrotation
						JOINT lelbow
						{
							OFFSET 0.255332 -0.015649 -0.022946
							CHANNELS 3 Zrotation Yrotation Xrotation
							JOINT lwrist
							{
								OFFSET 0.265709 0.012698 -0.007375
								CHANNELS 3 Zrotation Yrotation Xrotation
								End Site
								{
									OFFSET 0.000000 0.000000 0.000000
								}
							}
						}
					}
				}
				JOINT rclavicle
				{
					OFFSET -0.082954 0.112472 -0.023707
					CHANNELS 3 Zrotation Yrotation Xrotation
					JOINT rshoulder
					{
						OFFSET -0.113228 0.046853 -0.008472
						CHANNELS 3 Zrotation Yrotation Xrotation
						JOINT relbow
						{
							OFFSET -0.260127 -0.014369 -0.031269
							CHANNELS 3 Zrotation Yrotation Xrotation
							JOINT rwrist
							{
								OFFSET -0.269108 0.006794 -0.006027
								CHANNELS 3 Zrotation Yrotation Xrotation
								End Site
								{
									OFFSET 0.000000 0.000000 0.000000
								}
							}
						}
					}
				}
			}
		}
	}
}
MOTION
Frames: 8
Frame Time: 0.033333
0.480273 0.207408 0.993209 94.128566 4.074677 95.479484 7.153375 3.510766 -6.391911 3.080087 -4.452990 -4.906587 -1.065540 10.035430 -2.685508 0.000000 -0.000000 0.000000 -2.080954 -2.010438 -9.094730 -2.231349 3.121598 5.043405 4.394009 -7.427447 -4.957064 0.000000 -0.000000 0.000000 -0.892888 0.346527 1.065842 4.299031 -3.801114 -2.276795 0.075326 0.644829 -6.780869 -0.360769 -16.622259 2.123034 4.449855 -15.413463 -3.519768 -24.534407 4.383406 -5.690958 -60.739435 -4.308782 27.260066 5.344086 -15.835015 11.777019 -9.869987 -9.087533 12.478268 24.435508 0.595760 -3.953461 51.484043 1.649404 17.825278 -5.827077 6.630334 2.112679 6.882032 1.807580 4.823062 
0.479438 0.208902 0.993006 93.922929 4.084361 95.588570 7.138118 3.542706 -6.460252 2.930284 -4.357800 -5.017194 -1.055206 10.051281 -2.662353 0.000000 -0.000000 0.000000 -2.159139 -2.074274 -9.238328 -2.292822 3.151877 4.835803 4.577733 -7.217173 -4.772198 0.000000 -0.000000 0.000000 -0.903784 0.527446 1.017332 4.242092 -3.802806 -2.236208 0.076447 0.815968 -6.835197 -0.400447 -16.364491 2.775086 5.468913 -15.869072 -4.734070 -24.091018 4.055549 -5.571654 -60.821109 -4.011756 27.222219 5.243081 -15.319910 11.841808 -10.447929 -9.136345 12.687230 24.244793 0.854507 -3.691407 51.567823 1.225560 17.394731 -5.835934 7.009058 1.811168 7.109160 2.173082 4.484816 
0.479107 0.209906 0.993006 93.539305 4.101491 95.724937 7.091440 3.614629 -6.465987 2.913611 -4.208305 -5.202360 -1.058444 10.194394 -2.630935 0.000000 -0.000000 0.000000 -2.235179 -2.014888 -9.400122 -2.258332 3.233202 4.628897 4.729786 -7.153825 -4.601367 0.000000 -0.000000 0.000000 -0.896116 0.620211 0.806890 4.217038 -3.712482 -2.135798 0.063791 0.897357 -6.880181 -0.453972 -16.139006 2.896858 5.495379 -15.797075 -4.698889 -23.730241 4.052484 -5.487898 -60.646413 -3.757572 27.363990 5.037379 -14.819593 12.248446 -10.416288 -9.061514 12.890862 24.146867 0.944618 -3.469795 51.645401 1.256717 17.489720 -5.682631 7.236449 1.929347 7.014219 2.302648 4.400884 
0.478281 0.211129 0.993193 92.894958 4.000233 96.312934 6.903755 3.728352 -7.052245 2.797322 -3.932879 -5.205268 -1.039748 10.513761 -2.630438 0.000000 -0.000000 0.000000 -2.319544 -1.987533 -10.162435 -2.329624 3.595816 4.340425 4.799916 -7.220836 -4.347288 0.000000 -0.000000 0.000000 -0.901310 0.864641 0.407468 4.104407 -3.534637 -1.950178 -0.099949 0.804257 -7.402877 -0.101728 -15.703054 2.656078 5.185438 -15.434446 -4.352052 -23.153402 4.512737 -5.649156 -60.021309 -3.234792 27.924102 4.350729 -14.524488 13.732487 -10.144551 -8.217805 13.272816 24.500420 0.582424 -3.567009 51.310685 1.599878 17.926212 -4.975011 7.818604 2.620828 7.205549 2.334774 4.623297 
0.477878 0.211573 0.993208 92.653757 3.965746 96.385593 6.824891 3.777513 -7.158028 2.791151 -3.803706 -5.115884 -1.044247 10.585835 -2.693571 0.000000 -0.000000 0.000000 -2.387865 -1.925434 -10.307738 -2.337122 3.697366 4.298242 4.829900 -7.165530 -4.274521 0.000000 -0.000000 0.000000 -0.915944 0.907856 0.365680 4.099902 -3.519406 -1.872560 -0.115088 0.816421 -7.497465 -0.094057 -15.552183 2.657102 5.169207 -15.332871 -4.342028 -23.059785 4.455622 -5.605486 -59.797765 -3.065664 27.976021 4.253878 -14.138881 13.799706 -10.071525 -8.321732 13.412300 24.529651 0.679486 -3.539383 51.286613 1.696462 18.019938 -4.828771 8.161361 2.762364 7.094235 2.454091 4.737096 
0.477360 0.212294 0.993193 92.130869 3.910154 96.408221 6.682566 3.891276 -7.151655 2.819870 -3.599199 -5.060157 -1.015170 10.762392 -2.779896 0.000000 -0.000000 0.000000 -2.499540 -1.780749 -10.464368 -2.351954 3.921030 4.231689 4.910197 -7.100210 -4.184227 0.000000 -0.000000 0.000000 -0.955808 0.955245 0.319054 4.131970 -3.486976 -1.654827 -0.111550 0.854098 -7.613456 -0.103072 -15.274321 2.611556 5.154106 -15.196209 -4.425338 -22.950860 4.374879 -5.573543 -59.287078 -2.743836 27.956062 4.140313 -13.821401 14.019147 -10.369380 -8.085296 13.880778 24.581066 0.931610 -3.482096 51.246290 1.916065 18.172762 -4.618659 9.028318 3.140457 7.125143 2.544302 5.180877 
0.476972 0.212989 0.993021 91.572705 3.962394 96.181503 6.660191 4.045626 -6.845048 2.879705 -3.420608 -5.055326 -0.913952 10.924232 -2.875016 0.000000 -0.000000 0.000000 -2.504662 -1.685222 -10.394978 -2.338888 4.196631 4.247253 4.985120 -6.970430 -4.155282 0.000000 -0.000000 0.000000 -0.804846 1.015460 0.589595 4.131551 -3.458879 -1.558487 -0.109561 0.897176 -7.584703 -0.072541 -15.027122 2.423497 5.082432 -15.046598 -4.415389 -22.893560 4.227306 -5.526336 -58.781055 -2.454708 27.783374 4.088193 -13.791025 14.179433 -10.867239 -7.390722 14.257674 24.629029 1.197980 -3.498479 51.224454 2.201269 18.274349 -4.502477 10.070562 3.431666 7.369521 2.460392 5.481728 
0.476422 0.213275 0.992975 91.004775 3.981364 96.345880 6.642225 4.170185 -7.032981 2.865433 -3.095448 -4.928768 -0.884419 11.056733 -2.921041 0.000000 -0.000000 0.000000 -2.496039 -1.562505 -10.834802 -2.343102 4.399604 4.372462 5.085263 -6.792012 -4.051667 0.000000 -0.000000 0.000000 -0.835207 1.088819 0.320303 4.219171 -3.498077 -1.152663 -0.097324 0.914972 -7.772933 -0.013031 -14.634705 2.418311 5.055919 -14.901796 -4.526568 -22.831230 4.221333 -5.587150 -58.415954 -2.180560 27.680330 4.180275 -13.339174 13.939811 -11.253766 -7.251140 14.689894 24.779969 1.381845 -3.548890 51.182063 2.457507 18.395366 -4.326837 11.150859 3.632136 7.331005 2.730419 5.948643 
